
        <svg xmlns="http://www.w3.org/2000/svg" xmlns:xlink="http://www.w3.org/1999/xlink" version="1.1" width="3160.130062885222" 
        height="785.1103292388099" viewBox="0 0 3160.130062885222 785.1103292388099">
			
			<g transform="scale(8.006503144261082) translate(10, 10)">
				<defs id="SvgjsDefs1805"></defs><g id="SvgjsG1806" featureKey="nRdZyp-0" transform="matrix(1.8866242806585574,0,0,1.8866242806585574,-20.06749186028614,-33.34755808585927)" fill="#313bac"><g xmlns="http://www.w3.org/2000/svg"><path style="" d="M 27.449219 59.050781 L 10.636719 38.464844 L 27.441406 17.679688 L 32.019531 21.375 L 18.21875 38.445312 L 32.007812 55.328125 Z M 27.449219 59.050781 " stroke="none" fill-rule="nonzero" fill="#313bac" fill-opacity="1"></path><path style="" d="M 49.648438 59.050781 L 45.074219 55.351562 L 58.871094 38.28125 L 45.082031 21.398438 L 49.640625 17.675781 L 66.453125 38.261719 Z M 49.648438 59.050781 " stroke="none" fill-rule="nonzero" fill="#313bac" fill-opacity="1"></path></g></g><g id="SvgjsG1807" featureKey="Q4qmbg-0" transform="matrix(4.3868356749709445,0,0,4.3868356749709445,124.91127337821797,-17.039865857931797)" fill="#313bac"><path d="M16.98 20 l-2.98 0 l0 -5.64 c0 -1.52 -0.42 -2.16 -1.54 -2.16 c-1.2 0 -1.9 0.64 -1.9 2.16 l0 5.64 l-2.98 0 l0 -5.64 c0 -1.52 -0.4 -2.16 -1.54 -2.16 c-1.2 0 -1.92 0.64 -1.92 2.16 l0 5.64 l-2.96 0 l0 -9.88 l2.96 0 l0 0.9 c0.7 -0.7 1.76 -1.04 2.7 -1.04 c1.4 0 2.3 0.52 2.94 1.34 c0.54 -0.66 1.7 -1.26 3.44 -1.34 c2.78 0 3.78 1.32 3.78 4.38 l0 5.64 z M21.763895833333333 10.12 l0 9.88 l-2.96 0 l0 -9.88 l2.96 0 z M21.843895833333335 7.279999999999999 c0 0.84 -0.68 1.5 -1.58 1.5 c-0.86 0 -1.56 -0.66 -1.56 -1.5 c0 -0.82 0.7 -1.46 1.56 -1.46 c0.9 0 1.58 0.64 1.58 1.46 z M30.027791666666666 20 l-3.2 -4.06 c-0.08 0.08 -0.22 0.18 -0.34 0.28 l0 3.78 l-2.98 0 l0 -14.52 l2.98 0 l0 7.12 l2.84 -2.48 l4.42 0 l-4.78 4 c1.46 1.8 3.38 4.14 4.78 5.88 l-3.72 0 z M37.571687499999996 10.12 l0 9.88 l-2.96 0 l0 -9.88 l2.96 0 z M37.651687499999994 7.279999999999999 c0 0.84 -0.68 1.5 -1.58 1.5 c-0.86 0 -1.56 -0.66 -1.56 -1.5 c0 -0.82 0.7 -1.46 1.56 -1.46 c0.9 0 1.58 0.64 1.58 1.46 z M41.555583333333324 13.04 l-2.2 -1.26 c1.1 -1.24 2.58 -1.82 4.12 -1.82 c2.96 0 4.16 1.62 4.16 3.14 l0 6.9 l-2.96 0 l0 -0.7 c-0.46 0.48 -1.28 0.84 -2.2 0.84 c-2.7 0 -3.74 -1.2 -3.74 -3.04 c0 -2.08 1.68 -3.48 4.4 -3.48 l1.54 0 c0 -0.74 -0.56 -1.22 -1.4 -1.22 c-0.86 0 -1.28 0.16 -1.72 0.64 z M44.67558333333333 16.740000000000002 l0 -0.88 l-1.74 0 c-0.78 0 -1.36 0.54 -1.24 1.3 c0.08 0.54 0.56 0.76 1.24 0.76 c1.3 0 1.74 -0.74 1.74 -1.18 z M51.93947916666665 13.24 c0 1.18 5 0.62 5 3.74 c0 2.04 -1.8 3.18 -4.04 3.18 c-1.42 0 -2.84 -0.7 -3.96 -1.82 l1.94 -1.94 c0.56 0.68 1.36 1.2 2.02 1.26 s1.22 -0.22 1.32 -0.52 c0.24 -0.76 -1.14 -0.8 -1.56 -0.92 c-1.58 -0.48 -3.42 -1.14 -3.42 -3.1 c0 -2.34 2.44 -3.14 3.66 -3.14 c1.4 0 2.82 0.64 3.96 1.8 l-1.92 1.92 c-0.52 -0.68 -1.42 -1.22 -2.04 -1.22 c-0.32 0 -0.96 0.12 -0.96 0.76 z"></path></g>
			</g>
		</svg>
	